<?xml version="1.0" standalone="no"?>
<!DOCTYPE svg PUBLIC "-//W3C//DTD SVG 20010904//EN"
 "http://www.w3.org/TR/2001/REC-SVG-20010904/DTD/svg10.dtd">
<svg version="1.0" xmlns="http://www.w3.org/2000/svg"
 width="1280.000000pt" height="1280.000000pt" viewBox="0 0 1280.000000 1280.000000"
 preserveAspectRatio="xMidYMid meet">
<metadata>
Created by potrace 1.15, written by Peter Selinger 2001-2017
</metadata>
<g transform="translate(0.000000,1280.000000) scale(0.100000,-0.100000)"
fill="#1d2b36" stroke="none">
<path d="M5337 11154 c-4 -1474 -3 -1472 -48 -1774 -44 -305 -134 -612 -243
-829 -59 -115 -157 -252 -247 -344 -48 -48 -90 -87 -95 -86 -5 1 -47 -16 -94
-38 -104 -50 -194 -78 -314 -100 -77 -14 -205 -17 -806 -22 -793 -7 -734 -1
-814 -75 -21 -20 -44 -36 -50 -36 -6 0 -537 -500 -1181 -1111 -1294 -1229
-1445 -1374 -1445 -1388 0 -7 511 -11 1398 -14 1461 -4 1460 -4 1762 -48 904
-131 1421 -525 1514 -1151 13 -88 16 -225 17 -814 l0 -709 1241 -1305 c682
-718 1247 -1306 1254 -1308 11 -3 14 23 14 140 0 79 4 138 8 131 4 -6 19 -14
33 -18 33 -8 56 13 64 58 3 18 7 601 8 1297 3 1078 6 1288 20 1419 52 496 130
801 280 1096 34 66 61 123 60 127 -2 3 29 41 68 82 156 167 341 271 584 328
87 21 116 22 844 25 l755 4 76 72 c2310 2191 2561 2432 2538 2439 -13 3 -18 6
-12 7 15 1 26 44 18 65 -3 9 -22 20 -43 26 -23 6 -490 11 -1306 14 -1338 3
-1362 4 -1689 51 -844 123 -1360 480 -1501 1039 -38 152 -45 295 -45 958 0
378 -4 637 -10 658 -5 20 -20 50 -32 66 -24 32 -1959 2073 -2193 2313 -130
133 -162 157 -196 146 -22 -7 -43 -66 -37 -106 3 -16 2 -29 -1 -29 -3 0 -38
35 -78 77 l-72 77 -4 -1410z m1119 -4144 c273 -69 486 -283 555 -559 18 -70
21 -105 17 -210 -5 -145 -31 -239 -98 -353 -39 -65 -138 -183 -147 -174 -2 2
-32 -8 -66 -24 -105 -47 -190 -64 -317 -64 -136 0 -218 18 -337 75 -157 75
-287 205 -362 362 -57 119 -75 201 -75 337 0 127 17 212 65 318 15 34 25 62
21 62 -15 0 79 86 139 125 131 88 250 124 415 124 79 1 133 -5 190 -19z"/>
</g>
</svg>
